<?xml version="1.0" encoding="utf-8"?>
<!-- Generator: Adobe Illustrator 28.1.0, SVG Export Plug-In . SVG Version: 6.00 Build 0)  -->
<svg version="1.1" id="Layer_1" xmlns="http://www.w3.org/2000/svg" xmlns:xlink="http://www.w3.org/1999/xlink" x="0px" y="0px"
	 viewBox="0 0 88.7 89.3" style="enable-background:new 0 0 88.7 89.3;" xml:space="preserve">
<style type="text/css">
	.st0{fill:none;stroke:#D34444;stroke-width:6;stroke-dasharray:0.9973,0.9973;}
	.st1{fill:none;stroke:#D34444;stroke-miterlimit:10;}
	.st2{fill:none;stroke:#D34444;}
</style>
<g>
	<circle class="st0" cx="44.2" cy="44.5" r="36.2"/>
</g>
<g>
	<circle class="st1" cx="44.2" cy="44.5" r="31.8"/>
</g>
<circle class="st2" cx="44.2" cy="44.5" r="43.7"/>
<g>
	<polyline class="st2" points="38.3,30 38.3,26.1 28.8,16.5 	"/>
	<polyline class="st2" points="40.3,30 40.3,25.1 30.8,15.5 	"/>
	<polyline class="st2" points="42.3,30 42.3,19.5 38.1,15.3 38.1,13.2 	"/>
	<line class="st2" x1="44.3" y1="30" x2="44.3" y2="12.7"/>
	<line class="st2" x1="46.4" y1="30" x2="46.4" y2="12.8"/>
	<polyline class="st2" points="48.4,30 48.4,25.1 54.8,18.7 54.8,14.5 	"/>
	<polyline class="st2" points="50.4,30 50.4,26.1 59.8,16.7 	"/>
</g>
<g>
	<polyline class="st2" points="38.3,59.3 38.3,63.2 33.1,68.5 33.1,74.5 	"/>
	<polyline class="st2" points="40.3,59.3 40.3,64.2 35.1,69.4 35.1,75.1 	"/>
	<polyline class="st2" points="42.3,59.3 42.3,63.2 42.3,76.3 	"/>
	<polyline class="st2" points="44.3,59.3 44.3,63.2 44.3,70.2 46.2,72.1 46.2,76.2 	"/>
	<polyline class="st2" points="46.4,59.3 46.4,63.2 46.4,69.2 52.5,75.4 	"/>
	<polyline class="st2" points="48.4,59.3 48.4,63.2 58.4,73.2 	"/>
	<polyline class="st2" points="50.4,59.3 50.4,62.2 57.6,69.4 60.3,69.4 61.8,70.9 	"/>
</g>
<g>
	<polyline class="st2" points="59,38.6 62.9,38.6 66.6,34.9 74.7,34.9 	"/>
	<polyline class="st2" points="59,40.6 70.8,40.6 72.9,38.5 75.5,38.5 	"/>
	<line class="st2" x1="59" y1="42.6" x2="76" y2="42.6"/>
	<polyline class="st2" points="59,44.7 72,44.7 75.9,48.5 	"/>
	<polyline class="st2" points="59,46.7 71.1,46.7 75.3,50.9 	"/>
	<polyline class="st2" points="59,48.7 62.9,48.7 68,53.7 74.6,53.7 	"/>
	<polyline class="st2" points="59,50.7 61.4,50.7 71.5,60.8 	"/>
</g>
<g>
	<polyline class="st2" points="29.7,38.6 18,38.6 14,34.7 	"/>
	<line class="st2" x1="12.5" y1="40.6" x2="29.7" y2="40.6"/>
	<polyline class="st2" points="29.7,42.6 20.6,42.6 14.4,48.8 12.7,48.8 	"/>
	<polyline class="st2" points="29.7,44.7 21.6,44.7 15.6,50.6 13,50.6 	"/>
	<polyline class="st2" points="29.7,46.7 22.6,46.7 14.2,55 	"/>
	<polyline class="st2" points="29.7,48.7 26.3,48.7 15.8,59.1 	"/>
	<polyline class="st2" points="29.7,50.7 27.3,50.7 17,61 	"/>
</g>
<rect x="29.7" y="30" transform="matrix(-1.836970e-16 1 -1 -1.836970e-16 89 0.2998)" class="st1" width="29.3" height="29.3"/>
<g>
	<path class="st1" d="M39.2,46.9c-0.4,0-0.8-0.2-0.8-0.8c0-0.6,0.4-0.8,0.8-0.8h3.3v3.3c0,1.6-1.1,2.6-2.7,2.6h-2.9
		c-0.8,0-1.3-0.1-1.9-0.7c-0.7-0.6-0.8-1.2-0.8-2.1v-4.2c0-1.1,0.2-1.6,0.9-2.4l2-2.5c0.7-0.9,1.3-1.1,2.3-1.1h2.2
		c0.4,0,0.8,0.2,0.8,0.8c0,0.6-0.4,0.8-0.8,0.8h-2c-0.9,0-0.9,0-1.4,0.7l-1.8,2.3c-0.5,0.7-0.5,1.4-0.5,2.2v3.3
		c0,0.9,0.2,1.2,1.2,1.2h2.7c0.6,0,1.1-0.1,1.1-0.9v-1.7H39.2z"/>
	<path class="st1" d="M52.8,49.5v-3.4c0-0.5,0.2-0.8,0.8-0.8c0.6,0,0.8,0.4,0.8,0.8v4.2c0,0.6-0.4,0.8-0.8,0.8h-6.6
		c-0.4,0-0.8-0.2-0.8-0.8c0-0.6,0.4-0.8,0.8-0.8h2.5v-9.6h-2.5c-0.4,0-0.8-0.2-0.8-0.8c0-0.6,0.4-0.8,0.8-0.8h4.1v11.3H52.8z"/>
</g>
</svg>
