<svg width="122" height="122" viewBox="0 0 122 122" fill="none" xmlns="http://www.w3.org/2000/svg">
<path d="M121.5 60.7202C121.5 93.9767 94.4154 120.94 61 120.94C27.5846 120.94 0.5 93.9767 0.5 60.7202C0.5 27.4637 27.5846 0.5 61 0.5C94.4154 0.5 121.5 27.4637 121.5 60.7202Z" fill="#FFE2C5" stroke="#D34444"/>
<path d="M16.3121 35.1602L61.1131 9.29427L105.914 35.1602V86.892L61.1131 112.758L16.3121 86.892V35.1602Z" fill="#FFE2C5" stroke="#D34444"/>
<path d="M16.6781 86.6807L61.1131 9.71692L105.548 86.6807H16.6781Z" fill="#FFE2C5" stroke="#D34444"/>
<path d="M61.1132 9.00134V87.1808" stroke="#D34444"/>
<path d="M106.168 87.0385L38.4627 47.9487" stroke="#D34444"/>
<path d="M16.0583 87.0385L83.7638 47.9487" stroke="#D34444"/>
<circle cx="30.8364" cy="60.8637" r="29.7768" stroke="#D34444" stroke-dasharray="2 2"/>
<circle cx="91.39" cy="60.8637" r="29.7768" stroke="#D34444" stroke-dasharray="2 2"/>
<circle cx="45.9748" cy="34.6432" r="29.7768" stroke="#D34444" stroke-dasharray="2 2"/>
<circle cx="76.2515" cy="87.0842" r="29.7768" stroke="#D34444" stroke-dasharray="2 2"/>
<circle cx="76.2515" cy="34.6434" r="29.7768" stroke="#D34444" stroke-dasharray="2 2"/>
<circle cx="45.9748" cy="87.0842" r="29.7768" stroke="#D34444" stroke-dasharray="2 2"/>
<path d="M39.2089 48.3796L61.1132 35.7331L83.0175 48.3796V73.6725L61.1132 86.319L39.2089 73.6725V48.3796Z" fill="#FFE2C5" stroke="#D34444"/>
<mask id="path-14-inside-1_358_985" fill="white">
<path fill-rule="evenodd" clip-rule="evenodd" d="M38.7089 48.0909V48.0909L61.1132 61.0261L83.5175 48.0909L61.1132 35.1558L38.7089 48.0909Z"/>
</mask>
<path fill-rule="evenodd" clip-rule="evenodd" d="M38.7089 48.0909V48.0909L61.1132 61.0261L83.5175 48.0909L61.1132 35.1558L38.7089 48.0909Z" fill="#FFE2C5"/>
<path d="M38.7089 48.0909H37.7089V48.6683L38.2089 48.9569L38.7089 48.0909ZM38.7089 48.0909L38.2089 47.2249L37.7089 47.5136V48.0909H38.7089ZM61.1132 61.0261L60.6132 61.8921L61.1132 62.1808L61.6132 61.8921L61.1132 61.0261ZM83.5175 48.0909L84.0175 48.9569L85.5175 48.0909L84.0175 47.2249L83.5175 48.0909ZM61.1132 35.1558L61.6132 34.2897L61.1132 34.0011L60.6132 34.2897L61.1132 35.1558ZM39.7089 48.0909V48.0909H37.7089V48.0909H39.7089ZM61.6132 60.16L39.2089 47.2249L38.2089 48.9569L60.6132 61.8921L61.6132 60.16ZM83.0175 47.2249L60.6132 60.16L61.6132 61.8921L84.0175 48.9569L83.0175 47.2249ZM60.6132 36.0218L83.0175 48.9569L84.0175 47.2249L61.6132 34.2897L60.6132 36.0218ZM39.2089 48.9569L61.6132 36.0218L60.6132 34.2897L38.2089 47.2249L39.2089 48.9569Z" fill="#D34444" mask="url(#path-14-inside-1_358_985)"/>
<path d="M42.3886 48.0771L61.1173 37.2439L79.8459 48.0771" stroke="#D34444" stroke-width="0.5" stroke-dasharray="1 1"/>
<path d="M81.6897 51.2847L81.7072 72.9208L62.961 83.7237" stroke="#D34444" stroke-width="0.5" stroke-dasharray="1 1"/>
<path d="M59.1673 83.7061L40.4211 72.9032L40.4387 51.2671" stroke="#D34444" stroke-width="0.5" stroke-dasharray="1 1"/>
<path d="M61.1132 60.8839V86.6121" stroke="#D34444"/>
<circle cx="61.1173" cy="60.7464" r="9.96602" fill="#FFE2C5" stroke="#D34444"/>
<circle cx="61" cy="61" r="12.5" stroke="#D34444" stroke-width="3" stroke-dasharray="0.5 1"/>
<path d="M55.7924 56.5901L57.921 62.1444L59.9504 56.1561C60.8416 58.0059 62.201 59.7972 63.2443 61.9529C64.5484 64.6476 68.6454 63.3776 66.8093 60.7465C66.0405 59.6448 63.9236 59.4362 61.8517 63.5007C61.0093 65.1532 59.6483 66.4385 57.921 64.786" stroke="#D34444"/>
</svg>
